<?xml version="1.0" encoding="utf-8"?>
<!-- Generator: Adobe Illustrator 24.1.1, SVG Export Plug-In . SVG Version: 6.00 Build 0)  -->
<svg version="1.1" id="Layer_1" xmlns="http://www.w3.org/2000/svg" xmlns:xlink="http://www.w3.org/1999/xlink" x="0px" y="0px"
	 viewBox="0 0 1024 1024" style="enable-background:new 0 0 1024 1024;" xml:space="preserve">
<style type="text/css">
	.st0{fill:#FFFFFF;}
	.st1{fill:#2563EB;}
</style>
<g>
	<g>
		<path class="st0" d="M891.52,1012H132.48C65.94,1012,12,958.06,12,891.52V132.48C12,65.94,65.94,12,132.48,12h759.04
			C958.06,12,1012,65.94,1012,132.48v759.04C1012,958.06,958.06,1012,891.52,1012z"/>
	</g>
	<g>
		<polygon class="st1" points="544.97,354.15 324.51,791.33 168.54,791.33 387.5,359.4 387.5,358.28 130.29,358.28 130.29,232.67 
			544.97,232.67 		"/>
		<polygon class="st1" points="893.71,791.33 743.36,791.33 743.36,368.02 742.23,368.02 618.13,445.64 618.13,316.66 
			752.73,232.67 893.71,232.67 		"/>
	</g>
</g>
</svg>
